<?xml version="1.0" encoding="utf-8"?>
<!-- Generator: Adobe Illustrator 25.2.1, SVG Export Plug-In . SVG Version: 6.00 Build 0)  -->
<svg version="1.1" id="Layer_1" xmlns="http://www.w3.org/2000/svg" xmlns:xlink="http://www.w3.org/1999/xlink" x="0px" y="0px"
	 viewBox="0 0 1133.858 1133.858" enable-background="new 0 0 1133.858 1133.858" xml:space="preserve">
<g>
	<g>
		<path fill="#646285" d="M1036.627,395.992v341.875c0,165.168-133.972,299.141-299.141,299.141H395.612
			c-165.168,0-299.141-133.972-299.141-299.141V395.992c0-165.168,133.972-299.141,299.141-299.141h341.875
			C902.655,96.851,1036.627,230.823,1036.627,395.992z"/>
	</g>
	<g>
		<path fill="#DCDCEF" d="M870.756,127.767c-7.461,2.948-14.457,7.429-20.491,13.462L653.543,337.944h129.064
			c57.644,0,100.978,10.92,130.024,32.751c29.036,21.841,43.56,50.663,43.56,86.464c0,24.021-5.896,44.87-17.687,62.556
			c-10.623,15.935-24.807,28.585-42.518,37.957c4.234,1.389,8.366,2.925,12.387,4.62c22.271,9.396,39.629,23.253,52.075,41.594
			c12.445,18.341,18.668,40.837,18.668,67.468c0,39.303-15.506,69.986-46.507,92.032c-31.012,22.057-76.639,33.079-136.902,33.079
			H650.913l199.352,199.352h0c5.092,5.092,10.869,9.08,17.031,11.974c100.592-48.197,170.091-150.967,170.091-269.925V395.992
			C1037.387,278.405,969.475,176.648,870.756,127.767z"/>
		<path fill="#DCDCEF" d="M850.402,703.124c14.186-8.945,21.289-23.254,21.289-42.904c0-19.211-7.104-33.51-21.289-42.905
			c-14.195-9.385-35.044-14.083-62.555-14.083H664.046v113.32h123.802C815.358,716.552,836.207,712.079,850.402,703.124z"/>
		<path fill="#DCDCEF" d="M828.786,431.286c-13.755-8.945-33.519-13.428-59.28-13.428h-105.46v108.08h105.46
			c25.762,0,45.525-4.473,59.28-13.428c13.756-8.945,20.634-22.599,20.634-40.939C849.42,453.67,842.542,440.242,828.786,431.286z"
			/>
	</g>
	<g>
		<path fill="#DCDCEF" d="M402.875,804.292c-35.372,0-68.235-5.793-98.582-17.358c-30.356-11.565-56.66-28.054-78.931-49.455
			c-22.271-21.391-39.629-46.507-52.075-75.328c-12.445-28.821-18.668-60.478-18.668-94.979c0-34.492,6.223-66.158,18.668-94.979
			c12.446-28.821,29.907-53.928,52.403-75.329c22.486-21.391,48.8-37.879,78.931-49.455c30.131-11.565,63.098-17.358,98.91-17.358
			c39.731,0,75.656,6.877,107.752,20.633c32.097,13.755,59.055,33.959,80.896,60.59l-68.123,62.883
			c-15.721-17.9-33.192-31.329-52.403-40.284c-19.221-8.945-40.182-13.428-62.883-13.428c-21.401,0-41.052,3.5-58.953,10.48
			c-17.911,6.99-33.407,17.031-46.507,30.131s-23.253,28.606-30.459,46.507c-7.206,17.911-10.808,37.777-10.808,59.608
			c0,21.841,3.603,41.707,10.808,59.607c7.206,17.911,17.358,33.407,30.459,46.508s28.596,23.151,46.507,30.131
			c17.9,6.99,37.551,10.48,58.953,10.48c22.701,0,43.662-4.473,62.883-13.428c19.211-8.945,36.682-22.599,52.403-40.939
			l68.123,62.883c-21.841,26.642-48.799,46.947-80.896,60.918C479.187,797.302,443.047,804.292,402.875,804.292z"/>
	</g>
</g>
</svg>
